<svg width="142" height="50" viewBox="0 0 142 50" fill="none" xmlns="http://www.w3.org/2000/svg">
<path d="M65.9436 43.8455L60.6071 36.4154V48.3039H55.3055V27.5684H60.3377L66.0115 36.0122L71.7202 27.5684H76.7194V48.3058H71.3829V36.4174L66.0813 43.8474H65.9436V43.8455ZM87.4796 39.6914C86.871 39.2533 85.454 38.8462 84.1688 38.8462C80.8928 38.8462 78.3264 40.7382 78.3264 43.6768C78.3264 46.8849 80.8928 48.5733 83.8994 48.5733C85.5199 48.5733 86.9737 48.0325 87.4796 47.5266V48.3039H92.5797V38.9141C92.5797 34.8957 90.0132 32.7673 85.5199 32.7673C83.3585 32.7673 81.3329 33.2732 80.0826 33.9498V38.2046C81.298 37.4952 82.7848 37.123 84.2366 37.123C86.398 37.123 87.4796 37.9662 87.4796 39.1486V39.6914ZM87.4796 44.049C87.1424 44.6577 86.2972 45.0628 85.3512 45.0628C84.3045 45.0628 83.2577 44.6247 83.2577 43.576C83.2577 42.5622 84.3045 42.1241 85.3512 42.1241C86.2972 42.1241 87.1424 42.5293 87.4796 43.1709V44.049ZM101.555 37.2276H104.526V33.1065H101.555V28.9195H96.286V33.1065H93.6516V37.2276H96.286V48.3058H101.555V37.2276ZM116.374 33.0387C116.137 32.903 115.597 32.7692 114.922 32.7692C113.402 32.7692 112.22 33.4438 111.477 34.4576V33.1065H106.176V48.3039H111.477V39.3871C111.747 38.3074 112.728 37.6638 114.18 37.6638C115.023 37.6638 115.732 37.7995 116.374 38.1368V33.0387ZM123.368 33.1065H118.066V48.3039H123.368V33.1065ZM140.949 33.1065H135.477L133.079 36.7547L130.715 33.1065H125.006L130.073 40.5695L124.771 48.3039H130.242L132.843 44.3514L135.444 48.3039H141.186L135.849 40.5366L140.949 33.1065ZM55.3055 1.69225V22.4296H70.1326V17.7347H60.642V14.1545H69.3223V9.59525H60.642V6.35225H70.1326V1.69225H55.3055ZM81.833 22.4296L87.6425 7.2323H82.4417L79.6038 15.9456L76.7 7.2323H71.2956L77.0703 22.4296H81.833ZM101.898 16.0464V14.4937C101.898 9.96743 99.4999 6.89501 94.772 6.89501C90.585 6.89501 87.4099 10.171 87.4099 14.9337C87.4099 19.8302 90.7207 22.7689 95.5823 22.7689C97.7785 22.7689 99.6356 22.2959 100.818 21.4178V17.3975C99.2983 18.3085 98.048 18.6129 96.4275 18.6129C94.4677 18.6129 92.9829 17.8704 92.5428 16.0464H101.898ZM92.6087 13.0747C92.9809 11.6907 93.8242 10.9134 94.9736 10.9134C96.2569 10.9134 97.0342 11.7915 97.1679 13.0747H92.6087ZM122.185 27.7991L130.021 7.23036H124.752L121.914 15.8758L119.01 7.23036H113.505L119.179 22.0575L116.95 27.7991H122.185ZM111.671 6.93184C110.444 7.08692 109.477 7.70916 108.835 8.58145V7.23036H103.534V22.4277H108.835V13.5109C109.105 12.4292 110.086 11.7876 111.538 11.7876C112.377 11.7876 113.082 11.9214 113.72 12.2548L111.671 6.93184ZM25 0C38.8075 0 50 11.1925 50 25C50 38.8075 38.8075 50 25 50C11.1925 50 0 38.8075 0 25C0 11.1925 11.1925 0 25 0ZM17.256 45.2625C21.0979 43.3667 21.2957 35.9134 17.696 28.6132C14.0963 21.3131 8.06195 16.9322 4.21997 18.8261C0.376057 20.7219 0.180275 28.1752 3.77995 35.4753C7.37962 42.7774 13.414 47.1583 17.256 45.2625ZM10.0585 9.70575C10.0585 14.4026 16.7481 18.2116 25 18.2116C33.2519 18.2116 39.9415 14.4026 39.9415 9.70575C39.9415 5.00892 33.2519 1.19989 25 1.19989C16.7481 1.19989 10.0585 5.00892 10.0585 9.70575ZM28.652 45.4078C32.7518 48.2864 39.86 45.2276 44.5278 38.5768C49.1975 31.926 49.6588 24.2033 45.559 21.3247C41.4593 18.4461 34.351 21.505 29.6833 28.1558C25.0155 34.8065 24.5522 42.5293 28.652 45.4078ZM27.7526 11.1092L27.5432 8.10072L32.3079 10.8514L35.7254 8.87803L26.1631 3.35737L22.9259 5.22602L23.4648 8.67256L17.5138 8.35078L14.2766 10.2194L23.8389 15.7401L27.2544 13.7668L22.4897 11.0161L27.6809 11.1479L27.7526 11.1092Z" fill="white"/>
</svg>
